<?xml version="1.0" encoding="UTF-8" standalone="no"?>
<svg xmlns="http://www.w3.org/2000/svg" xmlns:xlink="http://www.w3.org/1999/xlink" class="card" face="4D" height="3.5in" preserveAspectRatio="none" viewBox="-106 -164.5 212 329" width="2.25in"><defs><symbol id="SD4" viewBox="-600 -600 1200 1200" preserveAspectRatio="xMinYMid"><path d="M-400 0C-350 0 0 -450 0 -500C0 -450 350 0 400 0C350 0 0 450 0 500C0 450 -350 0 -400 0Z"></path></symbol><symbol id="VD4" viewBox="-500 -500 1000 1000" preserveAspectRatio="xMinYMid"><path d="M50 460L250 460M150 460L150 -460L-300 175L-300 200L270 200" stroke="black" stroke-width="80" stroke-linecap="square" stroke-miterlimit="1.5" fill="none"></path></symbol><rect id="XD4" width="124" height="190.769" x="-62" y="-95.384"></rect></defs><rect width="211" height="328" x="-105.5" y="-164" rx="12" ry="12" fill="#e3e3e3" stroke="black"></rect><use xlink:href="#XD4" width="124" height="190.769" stroke="black" fill="none"></use><use xlink:href="#VD4" height="40" width="40" x="-102" y="-152.5"></use><use xlink:href="#SD4" height="33.462" width="33.462" x="-98.731" y="-107.5" stroke="black" stroke-width="100" stroke-linejoin="round" stroke-linecap="round"></use><use xlink:href="#SD4" height="33.462" width="33.462" x="-98.731" y="-107.5" fill="blue"></use><use xlink:href="#SD4" height="50" width="50" x="-65.334" y="-94.551"></use><use xlink:href="#SD4" height="50" width="50" x="15.334" y="-94.551"></use><use xlink:href="#SD4" height="50" width="50" x="-65.334" y="44.551"></use><use xlink:href="#SD4" height="50" width="50" x="15.334" y="44.551"></use><g transform="rotate(180)"><use xlink:href="#VD4" height="40" width="40" x="-102" y="-152.5"></use><use xlink:href="#SD4" height="33.462" width="33.462" x="-98.731" y="-107.5" stroke="black" stroke-width="100" stroke-linejoin="round" stroke-linecap="round"></use><use xlink:href="#SD4" height="33.462" width="33.462" x="-98.731" y="-107.5" fill="blue"></use></g></svg>