<?xml version="1.0" encoding="UTF-8" standalone="no"?>
<svg xmlns="http://www.w3.org/2000/svg" xmlns:xlink="http://www.w3.org/1999/xlink" class="card" face="9H" height="3.5in" preserveAspectRatio="none" viewBox="-106 -164.5 212 329" width="2.25in"><defs><symbol id="SH9" viewBox="-600 -600 1200 1200" preserveAspectRatio="xMinYMid"><path d="M0 -300C0 -400 100 -500 200 -500C300 -500 400 -400 400 -250C400 0 0 400 0 500C0 400 -400 0 -400 -250C-400 -400 -300 -500 -200 -500C-100 -500 0 -400 -0 -300Z"></path></symbol><symbol id="VH9" viewBox="-500 -500 1000 1000" preserveAspectRatio="xMinYMid"><path d="M250 -100A250 250 0 0 1 -250 -100L-250 -210A250 250 0 0 1 250 -210L250 210A250 250 0 0 1 0 460C-150 460 -180 400 -200 375" stroke="black" stroke-width="80" stroke-linecap="square" stroke-miterlimit="1.5" fill="none"></path></symbol><rect id="XH9" width="124" height="190.769" x="-62" y="-95.384"></rect></defs><rect width="211" height="328" x="-105.5" y="-164" rx="12" ry="12" fill="#e3e3e3" stroke="black"></rect><use xlink:href="#XH9" width="124" height="190.769" stroke="black" fill="none"></use><use xlink:href="#VH9" height="40" width="40" x="-102" y="-152.5"></use><use xlink:href="#SH9" height="33.462" width="33.462" x="-98.731" y="-107.5" stroke="black" stroke-width="100" stroke-linejoin="round" stroke-linecap="round"></use><use xlink:href="#SH9" height="33.462" width="33.462" x="-98.731" y="-107.5" fill="red"></use><use xlink:href="#SH9" height="50" width="50" x="-65.334" y="-94.551"></use><use xlink:href="#SH9" height="50" width="50" x="15.334" y="-94.551"></use><use xlink:href="#SH9" height="50" width="50" x="-65.334" y="-48.183"></use><use xlink:href="#SH9" height="50" width="50" x="15.334" y="-48.183"></use><use xlink:href="#SH9" height="50" width="50" x="-25" y="-25"></use><use xlink:href="#SH9" height="50" width="50" x="-65.334" y="44.551"></use><use xlink:href="#SH9" height="50" width="50" x="15.334" y="44.551"></use><use xlink:href="#SH9" height="50" width="50" x="-65.334" y="-1.817"></use><use xlink:href="#SH9" height="50" width="50" x="15.334" y="-1.817"></use><g transform="rotate(180)"><use xlink:href="#VH9" height="40" width="40" x="-102" y="-152.5"></use><use xlink:href="#SH9" height="33.462" width="33.462" x="-98.731" y="-107.5" stroke="black" stroke-width="100" stroke-linejoin="round" stroke-linecap="round"></use><use xlink:href="#SH9" height="33.462" width="33.462" x="-98.731" y="-107.5" fill="red"></use></g></svg>