<?xml version="1.0" encoding="UTF-8" standalone="no"?>
<svg xmlns="http://www.w3.org/2000/svg" xmlns:xlink="http://www.w3.org/1999/xlink" class="card" face="7C" height="3.5in" preserveAspectRatio="none" viewBox="-106 -164.5 212 329" width="2.25in"><defs><symbol id="SC7" viewBox="-600 -600 1200 1200" preserveAspectRatio="xMinYMid"><path d="M30 150C35 385 85 400 130 500L-130 500C-85 400 -35 385 -30 150A10 10 0 0 0 -50 150A210 210 0 1 1 -124 -51A10 10 0 0 0 -110 -65A230 230 0 1 1 110 -65A10 10 0 0 0 124 -51A210 210 0 1 1 50 150A10 10 0 0 0 30 150Z"></path></symbol><symbol id="VC7" viewBox="-500 -500 1000 1000" preserveAspectRatio="xMinYMid"><path d="M-265 -320L-265 -460L265 -460C135 -200 -90 100 -90 460" stroke="black" stroke-width="80" stroke-linecap="square" stroke-miterlimit="1.5" fill="none"></path></symbol><rect id="XC7" width="124" height="190.769" x="-62" y="-95.384"></rect></defs><rect width="211" height="328" x="-105.5" y="-164" rx="12" ry="12" fill="#e3e3e3" stroke="black"></rect><use xlink:href="#XC7" width="124" height="190.769" stroke="black" fill="none"></use><use xlink:href="#VC7" height="40" width="40" x="-102" y="-152.5"></use><use xlink:href="#SC7" height="33.462" width="33.462" x="-98.731" y="-107.5" stroke="black" stroke-width="100" stroke-linejoin="round" stroke-linecap="round"></use><use xlink:href="#SC7" height="33.462" width="33.462" x="-98.731" y="-107.5" fill="green"></use><use xlink:href="#SC7" height="50" width="50" x="-62.563" y="-94.614"></use><use xlink:href="#SC7" height="50" width="50" x="12.563" y="-94.614"></use><use xlink:href="#SC7" height="50" width="50" x="-62.563" y="-25"></use><use xlink:href="#SC7" height="50" width="50" x="12.563" y="-25"></use><use xlink:href="#SC7" height="50" width="50" x="-25" y="-59.807"></use><use xlink:href="#SC7" height="50" width="50" x="-62.563" y="44.614"></use><use xlink:href="#SC7" height="50" width="50" x="12.563" y="44.614"></use><g transform="rotate(180)"><use xlink:href="#VC7" height="40" width="40" x="-102" y="-152.5"></use><use xlink:href="#SC7" height="33.462" width="33.462" x="-98.731" y="-107.5" stroke="black" stroke-width="100" stroke-linejoin="round" stroke-linecap="round"></use><use xlink:href="#SC7" height="33.462" width="33.462" x="-98.731" y="-107.5" fill="green"></use></g></svg>