<?xml version="1.0" encoding="UTF-8" standalone="no"?>
<svg xmlns="http://www.w3.org/2000/svg" xmlns:xlink="http://www.w3.org/1999/xlink" class="card" face="TD" height="3.5in" preserveAspectRatio="none" viewBox="-106 -164.5 212 329" width="2.25in"><defs><symbol id="SDT" viewBox="-600 -600 1200 1200" preserveAspectRatio="xMinYMid"><path d="M-400 0C-350 0 0 -450 0 -500C0 -450 350 0 400 0C350 0 0 450 0 500C0 450 -350 0 -400 0Z"></path></symbol><symbol id="VDT" viewBox="-500 -500 1000 1000" preserveAspectRatio="xMinYMid"><path d="M-260 430L-260 -430M-50 0L-50 -310A150 150 0 0 1 250 -310L250 310A150 150 0 0 1 -50 310Z" stroke="black" stroke-width="80" stroke-linecap="square" stroke-miterlimit="1.5" fill="none"></path></symbol><rect id="XDT" width="124" height="190.769" x="-62" y="-95.384"></rect></defs><rect width="211" height="328" x="-105.5" y="-164" rx="12" ry="12" fill="#e3e3e3" stroke="black"></rect><use xlink:href="#XDT" width="124" height="190.769" stroke="black" fill="none"></use><use xlink:href="#VDT" height="40" width="40" x="-102" y="-152.5"></use><use xlink:href="#SDT" height="33.462" width="33.462" x="-98.731" y="-107.5" stroke="black" stroke-width="100" stroke-linejoin="round" stroke-linecap="round"></use><use xlink:href="#SDT" height="33.462" width="33.462" x="-98.731" y="-107.5" fill="blue"></use><use xlink:href="#SDT" height="50" width="50" x="-65.334" y="-94.551"></use><use xlink:href="#SDT" height="50" width="50" x="15.334" y="-94.551"></use><use xlink:href="#SDT" height="50" width="50" x="-65.334" y="-48.183"></use><use xlink:href="#SDT" height="50" width="50" x="15.334" y="-48.183"></use><use xlink:href="#SDT" height="50" width="50" x="-25" y="-71.367"></use><use xlink:href="#SDT" height="50" width="50" x="-65.334" y="44.551"></use><use xlink:href="#SDT" height="50" width="50" x="15.334" y="44.551"></use><use xlink:href="#SDT" height="50" width="50" x="-65.334" y="-1.817"></use><use xlink:href="#SDT" height="50" width="50" x="15.334" y="-1.817"></use><use xlink:href="#SDT" height="50" width="50" x="-25" y="21.367"></use><g transform="rotate(180)"><use xlink:href="#VDT" height="40" width="40" x="-102" y="-152.5"></use><use xlink:href="#SDT" height="33.462" width="33.462" x="-98.731" y="-107.5" stroke="black" stroke-width="100" stroke-linejoin="round" stroke-linecap="round"></use><use xlink:href="#SDT" height="33.462" width="33.462" x="-98.731" y="-107.5" fill="blue"></use></g></svg>